<?xml version="1.0" encoding="utf-8"?>
<!-- Generator: Adobe Illustrator 25.2.0, SVG Export Plug-In . SVG Version: 6.00 Build 0)  -->
<svg version="1.1" id="katman_1" xmlns="http://www.w3.org/2000/svg" xmlns:xlink="http://www.w3.org/1999/xlink" x="0px" y="0px"
	 viewBox="0 0 165 154" style="enable-background:new 0 0 165 154;" xml:space="preserve">
<style type="text/css">
	.st0{fill:#FFFFFF;}
	.st1{fill:#1E9AD7;}
	.st2{fill:#E30613;}
</style>
<g>
	<g>
		<path class="st0" d="M210.3,225.9c-83.2,0-166.4,0-249.6,0c0-78.4,0-156.8,0-235.2c83.2,0,166.4,0,249.6,0
			C210.3,69.1,210.3,147.5,210.3,225.9z M154.2,111.4c-6-9.6-14.1-17.1-24.1-22.6c4.8-1.7,5.9-5.4,5-8.4c-0.9-3.1-3.9-5.1-7-4.7
			c-1.8,0.2-3.2,1.1-4.3,2.4c-1.8,2.2-1.7,4.7-0.7,7.4c-11.1-4.4-22.4-5.7-34-4.1c26.5,3.1,44.3,16.9,53.2,42.3
			c0.2-7.7-1.1-15.1-3.2-22.6c1.3,0.6,2.3,1,3.3,1.5C147,104.8,150.7,107.9,154.2,111.4z M135.6,123.2
			c-6.4-21.6-27.2-37.9-52.2-36.9c-24.5,1-42.8,18.4-47.8,36.6C46.7,104,63.1,93.2,85.5,93.2C107.9,93.2,124.3,104,135.6,123.2z
			 M31.9,101c-2.1,7.4-3.2,14.8-3.2,22.2c8.9-24.8,26.5-38.7,52.6-41.9c-11.5-1.3-22.5-0.1-33.6,4.3c0.8-2.2,1.1-4.1,0.3-6
			c-0.9-1.9-2.4-3.1-4.4-3.6c-3-0.7-6.4,1-7.4,3.7c-0.5,1.4-0.8,2.9-0.2,4.4c0.9,2.3,2.4,3.9,5,4.5c-4.9,2.7-9.3,5.9-13.3,9.6
			c-4.1,3.7-7.6,7.9-10.5,12.6C21.4,106.7,26,103.3,31.9,101z"/>
		<path d="M154.2,111.4c-3.5-3.5-7.2-6.6-11.6-8.8c-1-0.5-2.1-0.9-3.3-1.5c2.1,7.5,3.3,14.9,3.2,22.6c-9-25.3-26.8-39.2-53.2-42.3
			c11.6-1.5,22.9-0.2,34,4.1c-1-2.6-1.1-5.1,0.7-7.4c1.1-1.3,2.5-2.2,4.3-2.4c3-0.4,6.1,1.6,7,4.7c0.9,3-0.2,6.7-5,8.4
			C140.1,94.3,148.2,101.8,154.2,111.4z"/>
		<path class="st1" d="M135.6,123.2c-11.2-19.2-27.7-30-50.1-30c-22.4,0-38.8,10.8-49.8,29.6c5-18.1,23.2-35.6,47.8-36.6
			C108.4,85.3,129.2,101.6,135.6,123.2z"/>
		<path id="XMLID_1_" class="st2" d="M31.9,101c-5.9,2.2-10.5,5.7-14.6,9.9c2.9-4.7,6.4-8.9,10.5-12.6c4-3.7,8.4-6.9,13.3-9.6
			c-2.6-0.6-4.1-2.2-5-4.5c-0.6-1.5-0.3-3,0.2-4.4c1-2.7,4.4-4.4,7.4-3.7c2,0.5,3.5,1.7,4.4,3.6c0.9,1.9,0.5,3.8-0.3,6
			c11-4.4,22.1-5.6,33.6-4.3c-26.1,3.2-43.7,17.1-52.6,41.9C28.7,115.8,29.8,108.5,31.9,101z"/>
	</g>
	<g id="layer1">
		<g id="g11993" transform="translate(0.01320793,-14.655723)">
			<g id="g837" transform="translate(-190.17566,-55.765796)">
				<g id="g2464" transform="translate(-13.561611,18.317741)">
					<g id="g24" transform="matrix(4.3004866,0,0,-4.3004866,309.739,153.04853)">
						<path id="path26" class="st1" d="M-4.8,14.2c0.2,0.5,0.3,0.8,0.5,1.1c0.7,1.1,1.8,1.6,3,1.3c1.1-0.2,1.8-1.2,1.9-2.5
							c0.1-1.3-0.3-2.5-1-3.5C-1.6,9-3,7.6-4.5,6.2C-4.7,6-5,5.6-5.3,6.1c-0.7,1.3-2,2-2.9,3.1c-0.7,0.7-1.3,1.4-1.7,2.3
							c-0.6,1.5-0.4,2.8,0.7,4c1.2,1.4,3,1.3,4-0.3C-5.1,14.9-5,14.6-4.8,14.2"/>
					</g>
				</g>
			</g>
		</g>
	</g>
</g>
</svg>
